<?xml version="1.0" standalone="no"?>
<!DOCTYPE svg PUBLIC "-//W3C//DTD SVG 20010904//EN"
 "http://www.w3.org/TR/2001/REC-SVG-20010904/DTD/svg10.dtd">
<svg version="1.0" xmlns="http://www.w3.org/2000/svg"
 width="800.000000pt" height="800.000000pt" viewBox="0 0 800.000000 800.000000"
 preserveAspectRatio="xMidYMid meet">
<metadata>
Created by potrace 1.14, written by Peter Selinger 2001-2017
</metadata>
<g transform="translate(0.000000,800.000000) scale(0.100000,-0.100000)"
fill="#000000" stroke="none">
<path d="M4830 6769 c-294 -33 -537 -141 -728 -324 -236 -225 -347 -542 -314
-897 27 -288 119 -500 299 -689 177 -186 371 -303 818 -494 431 -185 564 -264
640 -385 63 -100 72 -256 20 -363 -51 -104 -163 -187 -308 -228 -70 -20 -103
-24 -232 -23 -167 1 -255 19 -374 74 -134 63 -290 204 -387 349 -26 39 -51 71
-56 71 -17 0 -660 -375 -665 -388 -6 -15 63 -134 136 -232 349 -467 998 -696
1686 -594 709 104 1120 588 1065 1253 -16 196 -49 321 -121 461 -153 295 -433
499 -1049 765 -341 147 -450 206 -536 290 -56 55 -76 83 -93 128 -29 79 -29
205 -1 281 99 264 528 308 760 76 30 -30 77 -88 103 -128 27 -41 54 -72 60
-69 18 7 610 387 625 402 20 19 -111 209 -223 320 -181 183 -388 287 -655 330
-121 19 -360 27 -470 14z"/>
<path d="M2247 6723 c-4 -3 -7 -673 -7 -1487 0 -1608 1 -1557 -55 -1672 -34
-69 -107 -136 -181 -164 -89 -34 -258 -40 -351 -12 -128 39 -236 140 -338 315
-27 47 -54 86 -58 87 -7 0 -600 -355 -659 -395 -16 -10 -15 -16 14 -71 131
-252 345 -460 591 -574 270 -125 658 -162 981 -94 426 89 715 350 831 749 62
215 58 105 62 1788 l4 1537 -414 0 c-228 0 -417 -3 -420 -7z"/>
<path d="M6093 2826 c-13 -7 -32 -21 -44 -32 -46 -42 -49 -59 -49 -324 0 -272
-3 -287 -56 -329 -25 -20 -38 -21 -269 -21 -277 0 -315 -7 -365 -68 l-30 -37
0 -171 c0 -188 6 -212 61 -259 l31 -25 256 0 c287 -1 306 -5 349 -69 22 -33
23 -40 23 -283 0 -273 3 -292 59 -340 l31 -28 180 0 c179 0 181 0 221 27 68
45 69 51 69 336 0 248 1 255 23 288 41 61 55 63 342 69 282 5 286 6 330 64 25
32 25 35 25 214 0 115 -4 182 -10 182 -5 0 -10 6 -10 13 0 22 -53 65 -95 76
-24 6 -138 11 -278 11 -222 0 -241 1 -267 20 -53 37 -60 77 -60 322 0 251 -6
284 -62 340 l-38 38 -172 -1 c-117 -1 -180 -5 -195 -13z"/>
</g>
</svg>
